name ./resultDataOpenSim/trcMotMarkerGrf/sub06/grf-02-07.mot
datacolumns 19
datarows 10
range 1.48000000 1.51600000
endheader

                time	     ground_force_vx	     ground_force_vy	     ground_force_vz	     ground_force_px	     ground_force_py	     ground_force_pz	   l_ground_force_vx	   l_ground_force_vy	   l_ground_force_vz	   l_ground_force_px	   l_ground_force_py	   l_ground_force_pz	     ground_torque_x	     ground_torque_y	     ground_torque_z	   l_ground_torque_x	   l_ground_torque_y	   l_ground_torque_z	
          1.48000000	        102.56547667	        694.33404363	        -14.81024069	          0.87063185	          0.00000000	          0.10531131	          0.00000000	          0.00000000	          0.00000000	          0.00000000	          0.00000000	          0.00000000	          0.00000000	          4.26525790	          0.00000000	          0.00000000	          0.00000000	          0.00000000	
          1.48400000	        108.43376589	        707.95019016	        -14.19448807	          0.87097490	          0.00000000	          0.10500495	          0.00000000	          0.00000000	          0.00000000	          0.00000000	          0.00000000	          0.00000000	          0.00000000	          4.30182009	          0.00000000	          0.00000000	          0.00000000	          0.00000000	
          1.48800000	        114.01696082	        720.77622847	        -13.59447909	          0.87135225	          0.00000000	          0.10473571	          0.00000000	          0.00000000	          0.00000000	          0.00000000	          0.00000000	          0.00000000	          0.00000000	          4.31014725	          0.00000000	          0.00000000	          0.00000000	          0.00000000	
          1.49200000	        119.47182553	        732.66118409	        -13.26252326	          0.87173907	          0.00000000	          0.10450253	          0.00000000	          0.00000000	          0.00000000	          0.00000000	          0.00000000	          0.00000000	          0.00000000	          4.29667356	          0.00000000	          0.00000000	          0.00000000	          0.00000000	
          1.49600000	        124.94932217	        743.43271058	        -13.42808498	          0.87212790	          0.00000000	          0.10430381	          0.00000000	          0.00000000	          0.00000000	          0.00000000	          0.00000000	          0.00000000	          0.00000000	          4.26923281	          0.00000000	          0.00000000	          0.00000000	          0.00000000	
          1.50000000	        130.54935599	        752.90347097	        -14.25258401	          0.87251315	          0.00000000	          0.10413654	          0.00000000	          0.00000000	          0.00000000	          0.00000000	          0.00000000	          0.00000000	          0.00000000	          4.23577337	          0.00000000	          0.00000000	          0.00000000	          0.00000000	
          1.50400000	        136.29338546	        760.89117595	        -15.79396719	          0.87289194	          0.00000000	          0.10399857	          0.00000000	          0.00000000	          0.00000000	          0.00000000	          0.00000000	          0.00000000	          0.00000000	          4.20336341	          0.00000000	          0.00000000	          0.00000000	          0.00000000	
          1.50800000	        142.11956272	        767.24154299	        -17.98560965	          0.87327907	          0.00000000	          0.10388302	          0.00000000	          0.00000000	          0.00000000	          0.00000000	          0.00000000	          0.00000000	          0.00000000	          4.17771270	          0.00000000	          0.00000000	          0.00000000	          0.00000000	
          1.51200000	        147.90262255	        771.84523377	        -20.63757290	          0.87367771	          0.00000000	          0.10377696	          0.00000000	          0.00000000	          0.00000000	          0.00000000	          0.00000000	          0.00000000	          0.00000000	          4.16278505	          0.00000000	          0.00000000	          0.00000000	          0.00000000	
          1.51600000	        153.50308979	        774.64214016	        -23.46515282	          0.87409403	          0.00000000	          0.10367133	          0.00000000	          0.00000000	          0.00000000	          0.00000000	          0.00000000	          0.00000000	          0.00000000	          4.15985029	          0.00000000	          0.00000000	          0.00000000	          0.00000000	
